<svg width="80" height="80" viewBox="0 0 80 80" fill="none" xmlns="http://www.w3.org/2000/svg">
<circle cx="40" cy="40" r="40" fill="#CDB182" fill-opacity="0.32"/>
<path d="M46.8907 30.6667H50.6641C51.0177 30.6667 51.3568 30.8072 51.6069 31.0573C51.8569 31.3073 51.9974 31.6465 51.9974 32.0001V33.3334C51.9974 34.7479 51.4355 36.1045 50.4353 37.1047C49.4351 38.1048 48.0786 38.6667 46.6641 38.6667" fill="white"/>
<path d="M46.8907 30.6667H50.6641C51.0177 30.6667 51.3568 30.8072 51.6069 31.0573C51.8569 31.3073 51.9974 31.6465 51.9974 32.0001V33.3334C51.9974 34.7479 51.4355 36.1045 50.4353 37.1047C49.4351 38.1048 48.0786 38.6667 46.6641 38.6667" stroke="#CDB182" stroke-width="3" stroke-linecap="round" stroke-linejoin="round"/>
<path d="M32.9867 30.6667H29.3333C28.9797 30.6667 28.6406 30.8072 28.3905 31.0573C28.1405 31.3073 28 31.6465 28 32.0001V33.3334C28 34.7479 28.5619 36.1045 29.5621 37.1047C30.5623 38.1048 31.9188 38.6667 33.3333 38.6667" fill="white"/>
<path d="M32.9867 30.6667H29.3333C28.9797 30.6667 28.6406 30.8072 28.3905 31.0573C28.1405 31.3073 28 31.6465 28 32.0001V33.3334C28 34.7479 28.5619 36.1045 29.5621 37.1047C30.5623 38.1048 31.9188 38.6667 33.3333 38.6667" stroke="#CDB182" stroke-width="3" stroke-linecap="round" stroke-linejoin="round"/>
<path d="M34.6693 52H45.3359H34.6693ZM33.3359 36.76C33.3371 38.5653 33.8787 40.3288 34.891 41.8236C35.9033 43.3183 37.34 44.4757 39.0159 45.1467C39.6495 45.399 40.3557 45.399 40.9893 45.1467C42.6652 44.4757 44.1019 43.3183 45.1142 41.8236C46.1265 40.3288 46.6681 38.5653 46.6693 36.76V28H33.3359V36.76ZM40.0026 45.5733V52V45.5733Z" fill="white"/>
<path d="M34.6693 52H45.3359M40.0026 45.5733V52M33.3359 36.76C33.3371 38.5653 33.8787 40.3288 34.891 41.8236C35.9033 43.3183 37.34 44.4757 39.0159 45.1467C39.6495 45.399 40.3557 45.399 40.9893 45.1467C42.6652 44.4757 44.1019 43.3183 45.1142 41.8236C46.1265 40.3288 46.6681 38.5653 46.6693 36.76V28H33.3359V36.76Z" stroke="#CDB182" stroke-width="3" stroke-linecap="round" stroke-linejoin="round"/>
</svg>
