<svg width="80" height="80" viewBox="0 0 80 80" fill="none" xmlns="http://www.w3.org/2000/svg">
<circle cx="40" cy="40" r="40" fill="#CDB182" fill-opacity="0.32"/>
<path d="M38.2429 48C39.2095 44.5 42.5895 42 46.4829 42.4133C50.1895 42.8066 53.1362 45.9333 53.3229 49.6533C53.3695 50.6333 53.2362 51.5733 52.9495 52.4466C52.7762 52.98 52.2562 53.3333 51.6895 53.3333H31.8351C28.4696 53.3333 25.9453 50.2542 26.6054 46.954L30.6628 26.6666H38.6628L41.3295 31.3333L35.6162 35.42L33.9961 33.3333" fill="white"/>
<path d="M38.2429 48C39.2095 44.5 42.5895 42 46.4829 42.4133C50.1895 42.8066 53.1362 45.9333 53.3229 49.6533C53.3695 50.6333 53.2362 51.5733 52.9495 52.4466C52.7762 52.98 52.2562 53.3333 51.6895 53.3333H31.8351C28.4696 53.3333 25.9453 50.2542 26.6054 46.954L30.6628 26.6666H38.6628L41.3295 31.3333L35.6162 35.42L33.9961 33.3333" stroke="#CDB182" stroke-width="3" stroke-miterlimit="2" stroke-linecap="round" stroke-linejoin="round"/>
<path d="M35.625 35.42L38.6651 46.6667" stroke="#CDB182" stroke-width="3" stroke-miterlimit="2" stroke-linecap="round" stroke-linejoin="round"/>
</svg>
