<svg width="80" height="80" viewBox="0 0 80 80" fill="none" xmlns="http://www.w3.org/2000/svg">
<circle cx="40" cy="40" r="40" fill="#CDB182" fill-opacity="0.32"/>
<g clip-path="url(#clip0_156_56)">
<path d="M46 50C45.5 53 43.5 55 40 55.5C36.6863 55.5 34.5 52.5 34 50C34 46.6863 36.6863 44.5 40 44.5C43.3137 44.5 46 46.6863 46 50Z" fill="white"/>
<path d="M46 30.5C46.7344 33 45.5 40 40.5 39.5C35.5 41.5 33.7656 33.5 33.7656 31C33.7656 27.6863 36.4519 25.5 39.7656 25.5C43.0793 25.5 46 27.1863 46 30.5Z" fill="white"/>
<path d="M39.9982 40.5559C42.0236 40.5559 46.7855 38.1184 46.7855 32.2779C46.7855 31.4632 46.7657 30.6762 46.6986 29.9326C46.5883 28.4692 46.2886 27.1723 45.5423 26.1783C44.5851 24.8258 42.9102 24 39.9982 24C37.0867 24 35.412 24.8255 34.4549 26.1775C33.7081 27.1716 33.4081 28.469 33.2979 29.9329C33.2308 30.6764 33.2109 31.4633 33.2109 32.2779C33.2109 38.1184 37.9729 40.5559 39.9982 40.5559ZM37.4824 26.7375C37.6303 26.4665 37.9137 26.2981 38.2218 26.2977C38.5771 26.2977 38.8811 26.5181 39.0057 26.8286H40.9898C41.0316 26.7239 41.0942 26.6277 41.1763 26.5455C41.3352 26.386 41.547 26.2979 41.7722 26.2976C42.0813 26.2976 42.3646 26.4651 42.513 26.735C42.5217 26.7508 42.5214 26.7698 42.5121 26.7853C42.5031 26.8009 42.4864 26.8103 42.4685 26.8103L41.716 26.8116C41.7027 26.8433 41.6775 26.9314 41.6778 27.1413C41.6781 27.3512 41.7037 27.4391 41.7172 27.4708L42.4697 27.4696C42.4877 27.4697 42.5041 27.4792 42.5133 27.4946C42.5226 27.5101 42.5228 27.5292 42.5143 27.545C42.3662 27.8158 42.0829 27.9844 41.7748 27.9848L41.7736 27.9846C41.4192 27.9846 41.1154 27.7644 40.9908 27.4537H39.0067C38.9649 27.5584 38.9025 27.6547 38.8204 27.7368C38.6615 27.8964 38.4497 27.9845 38.2244 27.9849C38.2244 27.9848 38.223 27.9849 38.223 27.9849C37.9154 27.9849 37.6319 27.8174 37.4835 27.5474C37.4748 27.5317 37.4753 27.5125 37.4843 27.4971C37.4933 27.4816 37.5101 27.472 37.5281 27.472L38.2804 27.4708C38.2936 27.4391 38.3191 27.3511 38.3186 27.1412C38.3182 26.9312 38.2926 26.8432 38.2792 26.8116L37.5267 26.8129C37.5088 26.8127 37.4923 26.8033 37.4831 26.7878C37.4741 26.7724 37.4738 26.7534 37.4824 26.7375ZM34.2207 31.0115C34.2989 31.1826 34.6311 31.8402 35.1453 31.9018C35.7364 31.9726 36.7176 29.8083 39.9982 29.8031C43.2788 29.8084 44.26 31.9726 44.8512 31.9018C45.3654 31.8401 45.6976 31.1825 45.7757 31.0115C45.7917 31.4306 45.7975 31.8548 45.7975 32.2779C45.7975 35.1328 44.5369 36.9017 43.4794 37.8829C42.1468 39.1192 40.6675 39.5679 39.9982 39.5679C39.329 39.5679 37.8495 39.1192 36.5171 37.8829C35.4595 36.9017 34.199 35.1328 34.199 32.2779C34.199 31.8548 34.2048 31.4306 34.2207 31.0115Z" fill="#CDB182"/>
<path d="M52.5984 49.0456C52.2519 46.891 51.5386 44.1156 50.1077 43.1291C49.1309 42.4557 45.7229 40.6349 44.2675 39.8574L44.2408 39.8432C44.0744 39.7543 43.8713 39.7721 43.7228 39.8886C42.9602 40.4873 42.1249 40.8907 41.24 41.0877C41.0837 41.1225 40.9554 41.2336 40.8986 41.3833L39.9975 43.7584L39.0964 41.3833C39.0396 41.2336 38.9113 41.1225 38.755 41.0877C37.8701 40.8907 37.0348 40.4873 36.2721 39.8886C36.1237 39.7721 35.9205 39.7542 35.7542 39.8432C34.3157 40.6118 30.8649 42.4704 29.8916 43.1263C28.2444 44.236 27.5243 48.2519 27.3967 49.0456C27.384 49.1244 27.3913 49.2049 27.4179 49.2801C27.4661 49.416 28.4852 52.0481 34.8543 53.0085C35.411 53.9816 36.2426 54.7908 37.2369 55.317C38.0817 55.7639 39.0386 56.0002 40.0044 56.0002C40.3826 56.0002 40.7612 55.9638 41.1299 55.8921C42.4045 55.6441 43.5816 54.9668 44.4444 53.9848C44.7095 53.683 44.9417 53.3553 45.139 53.0087C51.5095 52.0485 52.5289 49.416 52.5771 49.2801C52.6038 49.2048 52.6111 49.1242 52.5984 49.0456ZM45.0633 50.3644C45.0012 51.4914 44.5543 52.5788 43.8092 53.4266C43.0726 54.265 42.0644 54.8487 40.9685 55.062C40.6503 55.1239 40.3273 55.1545 40.0045 55.1545C39.1824 55.1545 38.3624 54.9558 37.6325 54.5695C36.6536 54.0515 35.8567 53.2126 35.3911 52.2075C34.9072 51.1627 34.7958 49.9607 35.0769 48.844C35.3484 47.7643 35.9831 46.7908 36.8558 46.1005C37.7462 45.3963 38.8622 45.0081 39.9974 45.0081C40.5049 45.0081 41.0119 45.0839 41.4966 45.2342C42.5576 45.5628 43.4947 46.2462 44.1373 47.1516C44.7981 48.0825 45.1261 49.2246 45.0633 50.3644Z" fill="#CDB182"/>
<path d="M43.3899 51.2123C43.3018 51.1585 43.4373 51.2415 43.3899 51.2123V51.2123Z" fill="black"/>
<path d="M36.6041 51.2123C36.5568 51.2415 36.6922 51.1585 36.6041 51.2123V51.2123Z" fill="black"/>
</g>
<defs>
<clipPath id="clip0_156_56">
<rect width="32" height="32" fill="white" transform="translate(24 24)"/>
</clipPath>
</defs>
</svg>
