<svg width="80" height="80" viewBox="0 0 80 80" fill="none" xmlns="http://www.w3.org/2000/svg">
<circle cx="40" cy="40" r="40" fill="#CDB182" fill-opacity="0.32"/>
<g clip-path="url(#clip0_156_57)">
<path d="M32.5 28L29 34.5L29.5 38.5L31 42.5L32.5 44.5L33.5 45.5L34 47.5L35 49V50.5L35.5 52L37 53C37.8333 53 39.6 53.3 40 54.5C40.4 55.7 41.1667 54.3333 41.5 53.5L44.5 52.5L45 51V48.5L46.5 47L47 45L50 40.5C50.5 38.6667 51.4 34.7 51 33.5C50.6 32.3 49.8333 31.6667 49.5 31.5C49.8333 31.5 49.8 30.7 47 27.5C44.2 24.3 42.8333 24.8333 42.5 25.5H36.5L32.5 28Z" fill="white"/>
<path d="M47.5733 26.6824C46.1715 25.5484 44.5336 24.7427 42.7798 24.3242C41.026 23.9058 39.2008 23.8852 37.438 24.2641C35.1605 24.7564 33.0764 25.9033 31.4418 27.5638C29.8072 29.2244 28.6932 31.3263 28.2369 33.6113C27.8146 35.6646 27.9405 37.7929 28.6021 39.7821C29.2636 41.7713 30.4374 43.5512 32.0053 44.9427V44.9987C32.0069 45.7716 32.1885 46.5336 32.5357 47.2241C32.8828 47.9147 33.3861 48.5149 34.0056 48.9772V48.9992V50.9994C34.0056 51.7952 34.3217 52.5583 34.8844 53.121C35.4471 53.6837 36.2102 53.9998 37.006 53.9998H37.7161C37.7962 54.5517 38.0712 55.0567 38.4912 55.4235C38.9113 55.7904 39.4487 55.9949 40.0063 56C40.564 55.9949 41.1014 55.7904 41.5214 55.4235C41.9415 55.0567 42.2164 54.5517 42.2966 53.9998H43.0067C43.8025 53.9998 44.5656 53.6837 45.1283 53.121C45.691 52.5583 46.0071 51.7952 46.0071 50.9994V48.9992V48.9772C46.6266 48.5149 47.1298 47.9147 47.477 47.2241C47.8242 46.5336 48.0058 45.7716 48.0073 44.9987V44.9427C49.2677 43.8184 50.2758 42.4401 50.9653 40.8984C51.6548 39.3567 52.0101 37.6864 52.0078 35.9976C52.0108 34.2123 51.614 32.4491 50.8467 30.8372C50.0793 29.2253 48.9608 27.8057 47.5733 26.6824ZM44.0068 49.9993V50.9994C44.0068 51.2647 43.9015 51.5191 43.7139 51.7066C43.5264 51.8942 43.272 51.9996 43.0067 51.9996H37.006C36.7407 51.9996 36.4863 51.8942 36.2988 51.7066C36.1112 51.5191 36.0058 51.2647 36.0058 50.9994V49.9993H44.0068ZM46.3711 43.7125C46.2572 43.8064 46.1655 43.9243 46.1026 44.0578C46.0397 44.1913 46.007 44.337 46.0071 44.4846V44.9987C46.0071 45.7944 45.691 46.5576 45.1283 47.1203C44.5656 47.6829 43.8025 47.9991 43.0067 47.9991H37.006C36.2102 47.9991 35.4471 47.6829 34.8844 47.1203C34.3217 46.5576 34.0056 45.7944 34.0056 44.9987V44.4846C34.0056 44.337 33.973 44.1913 33.9101 44.0578C33.8471 43.9243 33.7554 43.8064 33.6415 43.7125C32.2376 42.5602 31.1754 41.046 30.5697 39.3337C29.9641 37.6214 29.838 35.7761 30.2051 33.9973C30.5837 32.0986 31.5088 30.3518 32.8666 28.9716C34.2244 27.5914 35.9558 26.638 37.8481 26.2283C38.5497 26.0785 39.2649 26.0008 39.9823 25.9963C42.2863 25.9898 44.5219 26.7791 46.3111 28.2306C47.4681 29.167 48.4007 30.3507 49.0403 31.6948C49.68 33.0388 50.0105 34.5091 50.0076 35.9976C50.0093 37.4723 49.6841 38.9292 49.0553 40.2632C48.4265 41.5972 47.5098 42.7753 46.3711 43.7125ZM41.0065 30.9969C41.0065 31.2622 40.9011 31.5166 40.7135 31.7041C40.526 31.8917 40.2716 31.997 40.0063 31.997C38.9453 31.997 37.9278 32.4185 37.1776 33.1688C36.4273 33.919 36.0058 34.9366 36.0058 35.9976C36.0058 36.2628 35.9005 36.5172 35.7129 36.7047C35.5254 36.8923 35.271 36.9977 35.0057 36.9977C34.7405 36.9977 34.4861 36.8923 34.2985 36.7047C34.111 36.5172 34.0056 36.2628 34.0056 35.9976C34.0056 34.4061 34.6378 32.8797 35.7632 31.7544C36.8885 30.629 38.4148 29.9968 40.0063 29.9968C40.2716 29.9968 40.526 30.1022 40.7135 30.2897C40.9011 30.4773 41.0065 30.7317 41.0065 30.9969Z" fill="#CDB182"/>
</g>
<defs>
<clipPath id="clip0_156_57">
<rect width="32" height="32" fill="white" transform="translate(24 24)"/>
</clipPath>
</defs>
</svg>
