<svg width="80" height="80" viewBox="0 0 80 80" fill="none" xmlns="http://www.w3.org/2000/svg">
<path d="M50 20V30H60L70 20H60V10L50 20Z" fill="#CDB182"/>
<path d="M49.9974 30L41.6641 38.3333M49.9974 30V20L59.9974 10V20H69.9974L59.9974 30H49.9974Z" stroke="black" stroke-width="4" stroke-linecap="round" stroke-linejoin="round"/>
<path d="M41.1 10H40C34.0666 10 28.2664 11.7595 23.3329 15.0559C18.3994 18.3524 14.5543 23.0377 12.2836 28.5195C10.013 34.0013 9.4189 40.0333 10.5765 45.8527C11.734 51.6721 14.5912 57.0176 18.7868 61.2132C22.9824 65.4088 28.3279 68.266 34.1473 69.4236C39.9667 70.5811 45.9987 69.987 51.4805 67.7164C56.9623 65.4458 61.6477 61.6006 64.9441 56.6671C68.2405 51.7336 70 45.9334 70 40C70 39.6333 70 39.2667 70 38.9" stroke="black" stroke-width="4" stroke-linecap="round" stroke-linejoin="round"/>
<path d="M56.3317 43.3334C55.7287 46.2831 54.3381 49.0144 52.3074 51.2371C50.2768 53.4599 47.682 55.0911 44.7986 55.9574C41.9153 56.8238 38.8511 56.893 35.9316 56.1576C33.0121 55.4222 30.3464 53.9097 28.2175 51.7809C26.0886 49.652 24.5762 46.9862 23.8408 44.0667C23.1054 41.1472 23.1745 38.083 24.0409 35.1997C24.9073 32.3164 26.5385 29.7216 28.7612 27.6909C30.984 25.6602 33.7153 24.2696 36.665 23.6667" stroke="black" stroke-width="4" stroke-linecap="round" stroke-linejoin="round"/>
</svg>
