<svg width="267" height="22" viewBox="0 0 267 22" fill="none" xmlns="http://www.w3.org/2000/svg">
<path d="M20.368 5.448L14.224 20.232L10.096 21.456L3.28 4.92L0.832 3.696L1.6 2.136H10.552V3.48L7.936 5.04L13.096 17.664L18.16 5.424L14.488 3.696L15.256 2.136H23.008L22.984 3.48L20.368 5.448ZM29.5519 7.824C31.2319 7.824 32.5279 8.464 33.4399 9.744C34.3679 11.024 34.8159 12.8 34.7839 15.072H26.1439C26.3039 16.048 26.6479 16.832 27.1759 17.424C27.7039 18 28.3919 18.288 29.2399 18.288C30.3599 18.288 31.9679 17.728 34.0639 16.608L34.7839 17.976L31.1359 20.88C30.1919 21.12 29.0959 21.24 27.8479 21.24C26.6799 21.24 25.6239 20.968 24.6799 20.424C23.7519 19.864 23.0239 19.104 22.4959 18.144C21.9839 17.184 21.7279 16.12 21.7279 14.952C21.7279 13.688 22.1359 12.512 22.9519 11.424C23.7679 10.32 24.7839 9.448 25.9999 8.808C27.2319 8.152 28.4159 7.824 29.5519 7.824ZM28.2319 10.608C27.5279 10.608 26.9999 10.848 26.6479 11.328C26.2959 11.792 26.1039 12.512 26.0719 13.488H30.6559C30.5279 12.496 30.2879 11.768 29.9359 11.304C29.5999 10.84 29.0239 10.608 28.2079 10.608H28.2319ZM52.9791 21H47.5311V13.32C47.5311 12.568 47.4111 12.04 47.1711 11.736C46.9471 11.416 46.5471 11.256 45.9711 11.256C45.1231 11.256 44.2831 11.528 43.4511 12.072V18.72L45.6111 19.44L44.8191 21H37.2351V19.656L39.3711 17.856V12.408L37.2351 11.064V9.72L42.2271 7.608L43.1631 10.392L46.1391 8.016C46.5711 7.888 47.0591 7.824 47.6031 7.824C48.8191 7.824 49.7871 8.16 50.5071 8.832C51.2431 9.488 51.6111 10.384 51.6111 11.52V18.72L53.7711 19.44L52.9791 21ZM63.1825 21.048C62.6385 21.176 61.9905 21.24 61.2385 21.24C59.7025 21.24 58.5745 20.896 57.8545 20.208C57.1505 19.504 56.7985 18.424 56.7985 16.968V10.368H54.2065V9.096L59.3665 3.48H60.8785V8.784H65.1985V10.368H60.8785V16.8C60.8785 17.904 61.5025 18.456 62.7505 18.456C63.0705 18.456 63.3825 18.408 63.6865 18.312C64.0065 18.2 64.4065 18.016 64.8865 17.76L65.6065 19.128L63.1825 21.048ZM88.1944 9.408L82.6024 21H79.5784L77.4664 15.84L74.7304 21H71.7064L68.1304 12.312L65.8024 10.968V9.624L71.1064 7.608L72.0184 11.232L74.6344 17.592L76.5784 13.704L76.0264 12.336L73.6744 10.968V9.624L78.9784 7.608L79.8904 11.232L82.4824 17.472L84.9784 12.024L81.4024 9.624L82.1944 8.064H88.1944V9.408ZM97.3098 7.824C98.4938 7.824 99.5498 8.104 100.478 8.664C101.406 9.208 102.126 9.96 102.638 10.92C103.166 11.88 103.43 12.944 103.43 14.112C103.43 15.376 103.022 16.56 102.206 17.664C101.39 18.752 100.366 19.624 99.1338 20.28C97.9178 20.92 96.7418 21.24 95.6058 21.24C94.4378 21.24 93.3818 20.968 92.4378 20.424C91.5098 19.864 90.7818 19.104 90.2538 18.144C89.7418 17.184 89.4858 16.12 89.4858 14.952C89.4858 13.688 89.8938 12.512 90.7098 11.424C91.5258 10.32 92.5418 9.448 93.7578 8.808C94.9898 8.152 96.1738 7.824 97.3098 7.824ZM95.9178 10.608C95.2458 10.608 94.7338 10.88 94.3818 11.424C94.0458 11.952 93.8778 12.744 93.8778 13.8C93.8778 15.144 94.1498 16.264 94.6938 17.16C95.2378 18.04 96.0058 18.48 96.9978 18.48C97.6538 18.48 98.1498 18.208 98.4858 17.664C98.8378 17.104 99.0138 16.296 99.0138 15.24C99.0138 13.896 98.7418 12.792 98.1978 11.928C97.6538 11.048 96.8938 10.608 95.9178 10.608ZM113.781 11.232C113.205 11.232 112.629 11.488 112.053 12V18.48L115.701 19.44L114.933 21H105.837V19.656L107.973 17.856V12.408L105.837 11.064V9.72L110.829 7.608L111.741 10.272L113.925 8.016C114.261 7.888 114.653 7.824 115.101 7.824C115.933 7.824 116.645 8.016 117.237 8.4C117.845 8.784 118.269 9.312 118.509 9.984L116.205 12.864H114.693C114.677 12.288 114.597 11.88 114.453 11.64C114.309 11.384 114.085 11.256 113.781 11.256V11.232ZM127.589 21.048C127.045 21.176 126.397 21.24 125.645 21.24C124.109 21.24 122.981 20.896 122.261 20.208C121.557 19.504 121.205 18.424 121.205 16.968V10.368H118.613V9.096L123.773 3.48H125.285V8.784H129.605V10.368H125.285V16.8C125.285 17.904 125.909 18.456 127.157 18.456C127.477 18.456 127.789 18.408 128.093 18.312C128.413 18.2 128.813 18.016 129.293 17.76L130.013 19.128L127.589 21.048ZM139.122 7.824C140.802 7.824 142.098 8.464 143.01 9.744C143.938 11.024 144.386 12.8 144.354 15.072H135.714C135.874 16.048 136.218 16.832 136.746 17.424C137.274 18 137.962 18.288 138.81 18.288C139.93 18.288 141.538 17.728 143.634 16.608L144.354 17.976L140.706 20.88C139.762 21.12 138.666 21.24 137.418 21.24C136.25 21.24 135.194 20.968 134.25 20.424C133.322 19.864 132.594 19.104 132.066 18.144C131.554 17.184 131.298 16.12 131.298 14.952C131.298 13.688 131.706 12.512 132.522 11.424C133.338 10.32 134.354 9.448 135.57 8.808C136.802 8.152 137.986 7.824 139.122 7.824ZM137.802 10.608C137.098 10.608 136.57 10.848 136.218 11.328C135.866 11.792 135.674 12.512 135.642 13.488H140.226C140.098 12.496 139.858 11.768 139.506 11.304C139.17 10.84 138.594 10.608 137.778 10.608H137.802ZM173.813 21H164.885V19.656L167.501 18.096L166.037 14.52H158.621L157.301 17.736L160.973 19.44L160.205 21H152.453V19.656L155.045 17.712L161.189 2.904L165.341 1.68L172.157 18.216L174.605 19.44L173.813 21ZM162.365 5.472L159.389 12.672H165.293L162.365 5.472ZM182.597 21H175.013V19.656L177.149 17.856V4.728L175.013 3.312V1.968L179.717 0.0479994H181.229V18.72L183.389 19.44L182.597 21ZM191.902 21H184.318V19.656L186.454 17.856V4.728L184.318 3.312V1.968L189.022 0.0479994H190.534V18.72L192.694 19.44L191.902 21ZM201.686 21H194.102V19.656L196.238 17.856V12.288L194.102 10.872V9.528L198.806 7.608H200.318V18.72L202.478 19.44L201.686 21ZM198.254 0.383999C198.942 0.383999 199.502 0.607999 199.934 1.056C200.382 1.488 200.606 2.032 200.606 2.688C200.606 3.152 200.446 3.584 200.126 3.984C199.806 4.384 199.406 4.704 198.926 4.944C198.446 5.184 197.982 5.304 197.534 5.304C196.862 5.304 196.302 5.088 195.854 4.656C195.422 4.208 195.206 3.656 195.206 3C195.206 2.536 195.366 2.104 195.686 1.704C196.006 1.304 196.398 0.983999 196.862 0.743999C197.342 0.503999 197.806 0.383999 198.254 0.383999ZM217.747 21H212.275V18.912L209.563 21.048C209.243 21.176 208.843 21.24 208.363 21.24C206.827 21.24 205.715 20.864 205.027 20.112C204.355 19.36 204.019 18.456 204.019 17.4C204.019 16.776 204.211 16.168 204.595 15.576C204.979 14.968 205.531 14.408 206.251 13.896H212.275V13.488C212.275 12.608 212.035 11.96 211.555 11.544C211.075 11.128 210.435 10.92 209.635 10.92C208.515 10.92 207.051 11.36 205.243 12.24L204.523 10.872L207.859 8.184C208.675 7.944 209.627 7.824 210.715 7.824C212.507 7.824 213.891 8.232 214.867 9.048C215.859 9.864 216.355 11.048 216.355 12.6V18.6L218.515 19.44L217.747 21ZM209.587 18.024C210.403 18.024 211.299 17.688 212.275 17.016V15.48H208.411C208.283 15.672 208.187 15.856 208.123 16.032C208.075 16.192 208.051 16.376 208.051 16.584C208.051 16.984 208.187 17.32 208.459 17.592C208.747 17.864 209.123 18 209.587 18V18.024ZM235.604 21H230.156V13.32C230.156 12.568 230.036 12.04 229.796 11.736C229.572 11.416 229.172 11.256 228.596 11.256C227.748 11.256 226.908 11.528 226.076 12.072V18.72L228.236 19.44L227.444 21H219.86V19.656L221.996 17.856V12.408L219.86 11.064V9.72L224.852 7.608L225.788 10.392L228.764 8.016C229.196 7.888 229.684 7.824 230.228 7.824C231.444 7.824 232.412 8.16 233.132 8.832C233.868 9.488 234.236 10.384 234.236 11.52V18.72L236.396 19.44L235.604 21ZM245.283 7.824C246.035 7.824 246.907 7.92 247.899 8.112C248.891 8.288 249.611 8.488 250.059 8.712V13.176H248.547C247.939 12.36 247.251 11.728 246.483 11.28C245.715 10.832 244.915 10.608 244.083 10.608C243.491 10.608 243.035 10.888 242.715 11.448C242.411 11.992 242.259 12.776 242.259 13.8C242.259 15.096 242.531 16.168 243.075 17.016C243.635 17.864 244.427 18.288 245.451 18.288C246.491 18.288 247.987 17.784 249.939 16.776L250.659 18.144L247.203 20.88C246.291 21.12 245.243 21.24 244.059 21.24C242.891 21.24 241.835 20.968 240.891 20.424C239.963 19.864 239.235 19.104 238.707 18.144C238.195 17.184 237.939 16.12 237.939 14.952C237.939 13.688 238.315 12.512 239.067 11.424C239.835 10.32 240.795 9.448 241.947 8.808C243.099 8.152 244.211 7.824 245.283 7.824ZM261.068 7.824C262.748 7.824 264.044 8.464 264.956 9.744C265.884 11.024 266.332 12.8 266.3 15.072H257.66C257.82 16.048 258.164 16.832 258.692 17.424C259.22 18 259.908 18.288 260.756 18.288C261.876 18.288 263.484 17.728 265.58 16.608L266.3 17.976L262.652 20.88C261.708 21.12 260.612 21.24 259.364 21.24C258.196 21.24 257.14 20.968 256.196 20.424C255.268 19.864 254.54 19.104 254.012 18.144C253.5 17.184 253.244 16.12 253.244 14.952C253.244 13.688 253.652 12.512 254.468 11.424C255.284 10.32 256.3 9.448 257.516 8.808C258.748 8.152 259.932 7.824 261.068 7.824ZM259.748 10.608C259.044 10.608 258.516 10.848 258.164 11.328C257.812 11.792 257.62 12.512 257.588 13.488H262.172C262.044 12.496 261.804 11.768 261.452 11.304C261.116 10.84 260.54 10.608 259.724 10.608H259.748Z" fill="#9F7F58"/>
</svg>
